<?xml version="1.0" standalone="no"?>
<!DOCTYPE svg PUBLIC "-//W3C//DTD SVG 20010904//EN"
 "http://www.w3.org/TR/2001/REC-SVG-20010904/DTD/svg10.dtd">
<svg version="1.0" xmlns="http://www.w3.org/2000/svg"
 width="1080.000000pt" height="1080.000000pt" viewBox="0 0 1080.000000 1080.000000"
 preserveAspectRatio="xMidYMid meet">
<metadata>
Created by potrace 1.14, written by Peter Selinger 2001-2017
</metadata>
<g transform="translate(0.000000,1080.000000) scale(0.100000,-0.100000)"
fill="#000000" stroke="none">
<path d="M5537 7388 c-15 -51 -48 -158 -73 -238 -41 -131 -158 -504 -220 -702
-13 -43 -35 -113 -48 -155 -14 -43 -47 -152 -76 -243 -28 -91 -64 -205 -80
-255 -15 -49 -58 -184 -94 -300 -36 -115 -144 -462 -240 -770 -224 -720 -425
-1365 -432 -1387 -5 -17 22 -18 480 -18 l484 0 7 32 c4 18 29 101 55 183 27
83 110 348 185 590 75 242 151 487 170 545 18 58 63 200 99 315 36 116 102
327 146 470 45 143 91 289 102 325 11 36 134 431 274 878 140 447 254 815 254
818 0 2 -217 4 -483 4 l-483 0 -27 -92z"/>
<path d="M3620 6862 c-239 -131 -536 -294 -660 -362 -239 -132 -354 -194 -515
-280 -55 -29 -125 -67 -155 -85 -55 -32 -123 -69 -255 -140 -38 -21 -92 -50
-120 -66 -27 -15 -84 -46 -125 -68 l-75 -40 -3 -409 -2 -410 142 -80 c79 -43
346 -190 593 -324 248 -135 551 -301 675 -368 319 -174 433 -236 530 -288 47
-25 158 -85 248 -134 89 -48 166 -88 171 -88 4 0 9 215 10 478 l2 477 -118 64
c-65 36 -152 83 -193 106 -41 23 -172 95 -290 160 -118 65 -260 143 -315 173
-55 30 -125 69 -155 85 -201 109 -256 140 -264 147 -4 5 9 17 30 28 22 10 131
70 244 132 113 62 259 142 325 178 66 36 141 77 166 91 26 14 162 89 303 166
l256 140 0 478 c0 262 -3 477 -7 477 -5 0 -204 -108 -443 -238z"/>
<path d="M6730 7098 c0 -2 -3 -217 -7 -479 l-6 -475 79 -42 c43 -23 108 -58
144 -78 36 -20 117 -64 180 -99 141 -77 483 -265 605 -332 100 -56 144 -80
259 -143 57 -31 74 -45 65 -52 -8 -4 -52 -29 -99 -55 -47 -25 -123 -67 -170
-93 -134 -74 -408 -225 -486 -267 -38 -21 -181 -99 -317 -173 l-247 -135 0
-477 c0 -263 3 -478 8 -478 4 0 86 43 182 96 96 53 333 182 525 286 193 105
379 207 415 228 36 20 106 59 155 85 50 27 110 59 135 73 72 40 301 165 633
346 l307 168 0 408 0 408 -142 80 c-121 67 -798 436 -1008 550 -36 19 -78 42
-95 52 -16 9 -70 39 -120 65 -49 27 -128 69 -175 95 -47 26 -139 76 -205 112
-66 36 -229 124 -363 196 -227 123 -252 136 -252 130z"/>
</g>
</svg>
